<svg width="1584" height="396" viewBox="0 0 1584 396" fill="none" xmlns="http://www.w3.org/2000/svg">
<rect width="1584" height="396" fill="#F5F5F5"/>
<g id="Awesome banner" clip-path="url(#clip0_0_1)">
<rect width="1584" height="396" fill="url(#paint0_linear_0_1)"/>
<ellipse id="Ellipse 2" cx="323" cy="64" rx="285" ry="288" fill="url(#paint1_linear_0_1)" fill-opacity="0.1"/>
<g id="copyright">
<path d="M75.95 334.52L72.30 334.52L72.30 311.16L77.20 311.16L83.70 330.04Q83.60 329.02 83.50 327.62Q83.41 326.23 83.33 324.79Q83.25 323.35 83.25 322.23L83.25 311.16L86.90 311.16L86.90 334.52L82 334.52L75.57 315.64Q75.63 316.57 75.73 317.88Q75.82 319.19 75.89 320.57Q75.95 321.94 75.95 323.10L75.95 334.52M98.80 334.84Q96.46 334.84 94.67 333.96Q92.88 333.08 91.89 331.53Q90.90 329.98 90.90 327.93Q90.90 325.78 92.13 324.18Q93.36 322.58 95.34 322.17L95.34 322.10Q93.65 321.75 92.61 320.38Q91.57 319 91.57 317.11Q91.57 315.26 92.48 313.85Q93.39 312.44 95.02 311.64Q96.66 310.84 98.80 310.84Q100.94 310.84 102.59 311.64Q104.24 312.44 105.15 313.85Q106.06 315.26 106.06 317.11Q106.06 319 105.01 320.38Q103.95 321.75 102.26 322.10L102.26 322.17Q104.24 322.58 105.47 324.18Q106.70 325.78 106.70 327.93Q106.70 329.98 105.71 331.53Q104.72 333.08 102.93 333.96Q101.14 334.84 98.80 334.84M98.80 320.73Q100.30 320.73 101.23 319.82Q102.16 318.90 102.16 317.46Q102.16 315.99 101.23 315.08Q100.30 314.17 98.80 314.17Q97.30 314.17 96.37 315.08Q95.44 315.99 95.44 317.46Q95.44 318.90 96.37 319.82Q97.30 320.73 98.80 320.73M98.80 331.45Q100.56 331.45 101.68 330.42Q102.80 329.40 102.80 327.74Q102.80 326.04 101.68 325Q100.56 323.96 98.80 323.96Q97.04 323.96 95.92 325Q94.80 326.04 94.80 327.74Q94.80 329.40 95.92 330.42Q97.04 331.45 98.80 331.45M114.35 334.52L110.70 334.52L110.70 311.16L115.60 311.16L122.10 330.04Q122 329.02 121.90 327.62Q121.81 326.23 121.73 324.79Q121.65 323.35 121.65 322.23L121.65 311.16L125.30 311.16L125.30 334.52L120.40 334.52L113.97 315.64Q114.03 316.57 114.13 317.88Q114.22 319.19 114.29 320.57Q114.35 321.94 114.35 323.10" fill="white" fill-opacity="0.9"/>
<path d="M161.48 325.24L151.24 325.24L151.24 322.68L161.48 322.68" fill="white" fill-opacity="0.9"/>
<path d="M195.02 334.84Q191.82 334.84 189.96 333.05Q188.11 331.26 188.11 328.12L188.11 317.56Q188.11 314.42 189.96 312.63Q191.82 310.84 195.02 310.84Q198.15 310.84 200.01 312.65Q201.87 314.46 201.87 317.56L198.99 317.56Q198.99 315.58 197.95 314.50Q196.91 313.43 195.02 313.43Q193.13 313.43 192.06 314.50Q190.99 315.58 190.99 317.56L190.99 328.12Q190.99 330.10 192.06 331.18Q193.13 332.25 195.02 332.25Q196.91 332.25 197.95 331.18Q198.99 330.10 198.99 328.12L201.87 328.12Q201.87 331.22 200.01 333.03Q198.15 334.84 195.02 334.84" fill="white" fill-opacity="0.9"/>
<path d="M213.96 334.84Q210.83 334.84 209 333.02Q207.18 331.19 207.18 327.80L207.18 317.88Q207.18 314.49 209 312.66Q210.83 310.84 213.96 310.84Q217.10 310.84 218.92 312.66Q220.75 314.49 220.75 317.85L220.75 327.80Q220.75 331.19 218.92 333.02Q217.10 334.84 213.96 334.84M213.96 332.25Q215.85 332.25 216.86 331.18Q217.87 330.10 217.87 328.12L217.87 317.56Q217.87 315.58 216.86 314.50Q215.85 313.43 213.96 313.43Q212.11 313.43 211.08 314.50Q210.06 315.58 210.06 317.56L210.06 328.12Q210.06 330.10 211.08 331.18Q212.11 332.25 213.96 332.25" fill="white" fill-opacity="0.9"/>
<path d="M228.65 334.52L225.87 334.52L225.87 311.16L230.12 311.16L233.10 321.27L236.20 311.16L240.46 311.16L240.46 334.52L237.67 334.52L237.67 323.48Q237.67 321.91 237.72 319.88Q237.77 317.85 237.87 315.77Q237.96 313.69 238.09 312.02L234.31 324.09L231.82 324.09L228.20 312.31Q228.46 314.68 228.55 317.50Q228.65 320.31 228.65 323.48" fill="white" fill-opacity="0.9"/>
<path d="M247.85 334.52L245.07 334.52L245.07 311.16L249.32 311.16L252.30 321.27L255.40 311.16L259.66 311.16L259.66 334.52L256.87 334.52L256.87 323.48Q256.87 321.91 256.92 319.88Q256.97 317.85 257.07 315.77Q257.16 313.69 257.29 312.02L253.51 324.09L251.02 324.09L247.40 312.31Q247.66 314.68 247.75 317.50Q247.85 320.31 247.85 323.48" fill="white" fill-opacity="0.9"/>
<path d="M271.56 334.84Q268.30 334.84 266.57 333.03Q264.84 331.22 264.84 328.12L264.84 311.16L267.72 311.16L267.72 328.12Q267.72 330.04 268.67 331.16Q269.61 332.28 271.56 332.28Q273.48 332.28 274.44 331.16Q275.40 330.04 275.40 328.12L275.40 311.16L278.28 311.16L278.28 328.12Q278.28 331.26 276.57 333.05Q274.86 334.84 271.56 334.84" fill="white" fill-opacity="0.9"/>
<path d="M286.83 334.52L284.04 334.52L284.04 311.16L287.88 311.16L295.02 331.16Q294.95 330.36 294.87 329.19Q294.79 328.02 294.75 326.73Q294.70 325.43 294.70 324.28L294.70 311.16L297.48 311.16L297.48 334.52L293.64 334.52L286.54 314.52Q286.60 315.29 286.67 316.46Q286.73 317.62 286.78 318.92Q286.83 320.22 286.83 321.40" fill="white" fill-opacity="0.9"/>
<path d="M316.20 334.52L303.72 334.52L303.72 331.90L308.49 331.90L308.49 313.78L303.72 313.78L303.72 311.16L316.20 311.16L316.20 313.78L311.43 313.78L311.43 331.90L316.20 331.90" fill="white" fill-opacity="0.9"/>
<path d="M330.60 334.52L327.72 334.52L327.72 313.78L321.32 313.78L321.32 311.16L337 311.16L337 313.78L330.60 313.78" fill="white" fill-opacity="0.9"/>
<path d="M349.80 334.52L346.92 334.52L346.92 325.78L339.88 311.16L342.95 311.16L347.50 320.76Q347.88 321.56 348.11 322.12Q348.33 322.68 348.39 322.94Q348.46 322.68 348.70 322.12Q348.94 321.56 349.32 320.76L353.87 311.16L356.84 311.16L349.80 325.78" fill="white" fill-opacity="0.9"/>
<path d="M382.83 334.52L380.04 334.52L380.04 311.16L383.88 311.16L391.02 331.16Q390.95 330.36 390.87 329.19Q390.79 328.02 390.75 326.73Q390.70 325.43 390.70 324.28L390.70 311.16L393.48 311.16L393.48 334.52L389.64 334.52L382.54 314.52Q382.60 315.29 382.67 316.46Q382.73 317.62 382.78 318.92Q382.83 320.22 382.83 321.40" fill="white" fill-opacity="0.9"/>
<path d="M405.96 334.84Q402.83 334.84 401 333.02Q399.18 331.19 399.18 327.80L399.18 317.88Q399.18 314.49 401 312.66Q402.83 310.84 405.96 310.84Q409.10 310.84 410.92 312.66Q412.75 314.49 412.75 317.85L412.75 327.80Q412.75 331.19 410.92 333.02Q409.10 334.84 405.96 334.84M405.96 332.25Q407.85 332.25 408.86 331.18Q409.87 330.10 409.87 328.12L409.87 317.56Q409.87 315.58 408.86 314.50Q407.85 313.43 405.96 313.43Q404.11 313.43 403.08 314.50Q402.06 315.58 402.06 317.56L402.06 328.12Q402.06 330.10 403.08 331.18Q404.11 332.25 405.96 332.25" fill="white" fill-opacity="0.9"/>
<path d="M424.55 334.52L418.51 334.52L418.51 311.16L424.55 311.16Q426.83 311.16 428.47 312.02Q430.12 312.89 431.03 314.46Q431.95 316.02 431.95 318.17L431.95 327.48Q431.95 329.62 431.03 331.21Q430.12 332.79 428.47 333.66Q426.83 334.52 424.55 334.52M421.39 313.72L421.39 331.96L424.55 331.96Q426.67 331.96 427.87 330.78Q429.07 329.59 429.07 327.48L429.07 318.17Q429.07 316.09 427.87 314.90Q426.67 313.72 424.55 313.72" fill="white" fill-opacity="0.9"/>
<path d="M451.40 334.52L437.96 334.52L437.96 311.16L451.40 311.16L451.40 313.78L440.81 313.78L440.81 321.02L450.28 321.02L450.28 323.58L440.81 323.58L440.81 331.90L451.40 331.90" fill="white" fill-opacity="0.9"/>
<path d="M463.69 334.84Q460.30 334.84 458.28 333.05Q456.27 331.26 456.27 328.12L459.15 328.12Q459.15 330.07 460.39 331.18Q461.64 332.28 463.69 332.28Q465.67 332.28 466.86 331.13Q468.04 329.98 468.04 328.12Q468.04 326.71 467.29 325.67Q466.54 324.63 465.13 324.25L461.58 323.26Q459.37 322.62 458.11 320.97Q456.84 319.32 456.84 317.08Q456.84 315.22 457.67 313.82Q458.51 312.41 460.01 311.62Q461.51 310.84 463.47 310.84Q465.45 310.84 466.97 311.62Q468.49 312.41 469.35 313.80Q470.22 315.19 470.22 317.02L467.34 317.02Q467.34 315.42 466.25 314.41Q465.16 313.40 463.47 313.40Q461.77 313.40 460.71 314.41Q459.66 315.42 459.66 317.02Q459.66 318.30 460.35 319.21Q461.03 320.12 462.28 320.47L465.93 321.50Q468.27 322.14 469.56 323.91Q470.86 325.69 470.86 328.12Q470.86 331.19 468.91 333.02Q466.95 334.84 463.69 334.84" fill="white" fill-opacity="0.9"/>
</g>
<path d="M77.30 197.88Q74.90 197.88 73.50 196.54Q72.11 195.19 72.11 192.84L72.11 184.92Q72.11 182.57 73.50 181.22Q74.90 179.88 77.30 179.88Q79.65 179.88 81.04 181.24Q82.43 182.59 82.43 184.92L80.27 184.92Q80.27 183.43 79.49 182.63Q78.71 181.82 77.30 181.82Q75.88 181.82 75.08 182.62Q74.27 183.41 74.27 184.90L74.27 192.84Q74.27 194.33 75.08 195.14Q75.88 195.96 77.30 195.96Q78.71 195.96 79.49 195.14Q80.27 194.33 80.27 192.84L80.27 190.44L76.72 190.44L76.72 188.47L82.43 188.47L82.43 192.84Q82.43 195.17 81.04 196.52Q79.65 197.88 77.30 197.88" fill="white" fill-opacity="0.7"/>
<path d="M91.60 197.83Q89.22 197.83 87.82 196.44Q86.42 195.05 86.42 192.55L86.42 189.53Q86.42 187.01 87.81 185.63Q89.20 184.25 91.60 184.25Q94 184.25 95.39 185.63Q96.78 187.01 96.78 189.53L96.78 192.55Q96.78 195.05 95.38 196.44Q93.98 197.83 91.60 197.83M91.60 195.91Q93.02 195.91 93.82 195.12Q94.62 194.33 94.62 192.79L94.62 189.29Q94.62 187.75 93.82 186.96Q93.02 186.17 91.60 186.17Q90.21 186.17 89.39 186.96Q88.58 187.75 88.58 189.29L88.58 192.79Q88.58 194.33 89.39 195.12Q90.21 195.91 91.60 195.91" fill="white" fill-opacity="0.7"/>
<path d="M104.85 197.88Q102.81 197.88 101.61 196.74Q100.41 195.60 100.41 193.75Q100.41 192.53 100.96 191.62Q101.51 190.70 102.50 190.19Q103.48 189.67 104.75 189.67L108.83 189.67L108.83 188.64Q108.83 186.07 106.02 186.07Q104.78 186.07 104.01 186.53Q103.24 186.98 103.19 187.80L101.03 187.80Q101.15 186.24 102.48 185.22Q103.82 184.20 106.02 184.20Q108.42 184.20 109.71 185.35Q110.99 186.50 110.99 188.57L110.99 197.64L108.86 197.64L108.86 195.24L108.81 195.24Q108.62 196.46 107.58 197.17Q106.55 197.88 104.85 197.88M105.38 196.06Q106.96 196.06 107.90 195.29Q108.83 194.52 108.83 193.20L108.83 191.35L104.99 191.35Q103.94 191.35 103.28 191.99Q102.62 192.62 102.62 193.68Q102.62 194.78 103.35 195.42Q104.08 196.06 105.38 196.06" fill="white" fill-opacity="0.7"/>
<path d="M135.16 197.64L129.83 197.64L129.83 180.12L134.80 180.12Q137.20 180.12 138.56 181.32Q139.91 182.52 139.91 184.66Q139.91 186 139.06 187.08Q138.21 188.16 136.84 188.42L136.84 188.50Q137.87 188.62 138.65 189.22Q139.43 189.82 139.88 190.74Q140.32 191.66 140.32 192.77Q140.32 195.02 138.94 196.33Q137.56 197.64 135.16 197.64M131.94 182.06L131.94 187.58L134.78 187.58Q136.17 187.58 136.97 186.84Q137.78 186.10 137.78 184.82Q137.78 183.55 136.98 182.81Q136.19 182.06 134.80 182.06L131.94 182.06M131.94 189.46L131.94 195.70L134.92 195.70Q136.43 195.70 137.31 194.89Q138.18 194.09 138.18 192.70Q138.18 191.26 137.31 190.36Q136.43 189.46 134.92 189.46" fill="white" fill-opacity="0.7"/>
<path d="M149.20 197.83Q146.82 197.83 145.42 196.44Q144.02 195.05 144.02 192.55L144.02 189.53Q144.02 187.01 145.41 185.63Q146.80 184.25 149.20 184.25Q151.60 184.25 152.99 185.63Q154.38 187.01 154.38 189.53L154.38 192.55Q154.38 195.05 152.98 196.44Q151.58 197.83 149.20 197.83M149.20 195.91Q150.62 195.91 151.42 195.12Q152.22 194.33 152.22 192.79L152.22 189.29Q152.22 187.75 151.42 186.96Q150.62 186.17 149.20 186.17Q147.81 186.17 146.99 186.96Q146.18 187.75 146.18 189.29L146.18 192.79Q146.18 194.33 146.99 195.12Q147.81 195.91 149.20 195.91" fill="white" fill-opacity="0.7"/>
<path d="M162.45 197.88Q160.41 197.88 159.21 196.74Q158.01 195.60 158.01 193.75Q158.01 192.53 158.56 191.62Q159.11 190.70 160.10 190.19Q161.08 189.67 162.35 189.67L166.43 189.67L166.43 188.64Q166.43 186.07 163.62 186.07Q162.38 186.07 161.61 186.53Q160.84 186.98 160.79 187.80L158.63 187.80Q158.75 186.24 160.08 185.22Q161.42 184.20 163.62 184.20Q166.02 184.20 167.31 185.35Q168.59 186.50 168.59 188.57L168.59 197.64L166.46 197.64L166.46 195.24L166.41 195.24Q166.22 196.46 165.18 197.17Q164.15 197.88 162.45 197.88M162.98 196.06Q164.56 196.06 165.50 195.29Q166.43 194.52 166.43 193.20L166.43 191.35L162.59 191.35Q161.54 191.35 160.88 191.99Q160.22 192.62 160.22 193.68Q160.22 194.78 160.95 195.42Q161.68 196.06 162.98 196.06" fill="white" fill-opacity="0.7"/>
<path d="M175.65 197.64L173.49 197.64L173.49 184.44L175.65 184.44L175.65 186.96L175.70 186.96Q175.86 185.69 176.78 184.94Q177.69 184.20 179.22 184.20Q181.29 184.20 182.40 185.44Q183.52 186.67 183.52 188.95L183.52 190.08L181.36 190.08L181.36 188.95Q181.36 186.07 178.55 186.07Q177.14 186.07 176.39 186.89Q175.65 187.70 175.65 189.24" fill="white" fill-opacity="0.7"/>
<path d="M191.63 197.88Q189.66 197.88 188.48 196.56Q187.29 195.24 187.29 192.98L187.29 189.12Q187.29 186.84 188.46 185.52Q189.64 184.20 191.63 184.20Q193.12 184.20 194.09 184.94Q195.06 185.69 195.26 186.96L195.28 186.96L195.23 183.96L195.23 180.12L197.39 180.12L197.39 197.64L195.23 197.64L195.23 195.12L195.21 195.12Q195.04 196.42 194.08 197.15Q193.12 197.88 191.63 197.88M192.35 196.01Q193.70 196.01 194.46 195.17Q195.23 194.33 195.23 192.84L195.23 189.24Q195.23 187.75 194.46 186.91Q193.70 186.07 192.35 186.07Q190.98 186.07 190.22 186.78Q189.45 187.49 189.45 189.12L189.45 192.96Q189.45 194.57 190.22 195.29Q190.98 196.01 192.35 196.01" fill="white" fill-opacity="0.7"/>
<path d="M217.41 197.64L215.20 197.64L219.76 180.12L222.66 180.12L227.20 197.64L225.02 197.64L223.86 192.98L218.56 192.98L217.41 197.64M220.34 185.74L218.99 191.16L223.41 191.16L222.06 185.76Q221.68 184.22 221.46 183.19Q221.25 182.16 221.20 181.85Q221.15 182.16 220.94 183.19Q220.72 184.22 220.34 185.74" fill="white" fill-opacity="0.7"/>
<path d="M232.77 197.64L230.61 197.64L230.61 180.12L236.25 180.12Q238.70 180.12 240.15 181.52Q241.60 182.93 241.60 185.28Q241.60 187.63 240.15 189.04Q238.70 190.44 236.25 190.44L232.77 190.44L232.77 197.64M232.77 182.06L232.77 188.50L236.25 188.50Q237.66 188.50 238.52 187.62Q239.37 186.74 239.37 185.28Q239.37 183.79 238.52 182.93Q237.66 182.06 236.25 182.06" fill="white" fill-opacity="0.7"/>
<path d="M254.68 197.64L245.32 197.64L245.32 195.67L248.90 195.67L248.90 182.09L245.32 182.09L245.32 180.12L254.68 180.12L254.68 182.09L251.10 182.09L251.10 195.67L254.68 195.67" fill="white" fill-opacity="0.7"/>
<path d="M264.93 197.83L263.87 197.83Q261.66 197.83 260.45 196.84Q259.24 195.84 259.24 194.02L261.40 194.02Q261.40 194.93 262.05 195.44Q262.70 195.96 263.87 195.96L264.93 195.96Q266.13 195.96 266.79 195.43Q267.45 194.90 267.45 193.94Q267.45 192.24 265.89 192.02L262.24 191.50Q260.90 191.30 260.15 190.38Q259.41 189.46 259.41 187.94Q259.41 186.22 260.60 185.23Q261.78 184.25 263.87 184.25L264.93 184.25Q266.85 184.25 268.06 185.20Q269.27 186.14 269.37 187.68L267.18 187.68Q267.14 186.98 266.52 186.53Q265.91 186.07 264.93 186.07L263.87 186.07Q262.77 186.07 262.14 186.58Q261.52 187.08 261.52 187.94Q261.52 189.34 262.79 189.53L266.20 190.01Q269.56 190.49 269.56 193.94Q269.56 195.79 268.35 196.81Q267.14 197.83 264.93 197.83" fill="white" fill-opacity="0.7"/>
<path d="M293.32 197.64L291.16 197.64L291.16 188.21L287.32 188.21L287.32 186.24L291.16 186.24L291.16 183.48Q291.16 181.92 292.14 181.02Q293.13 180.12 294.86 180.12L298.72 180.12L298.72 182.09L294.86 182.09Q293.32 182.09 293.32 183.48L293.32 186.24L298.72 186.24L298.72 188.21L293.32 188.21" fill="white" fill-opacity="0.7"/>
<path d="M307.60 197.83Q305.22 197.83 303.82 196.44Q302.42 195.05 302.42 192.55L302.42 189.53Q302.42 187.01 303.81 185.63Q305.20 184.25 307.60 184.25Q310 184.25 311.39 185.63Q312.78 187.01 312.78 189.53L312.78 192.55Q312.78 195.05 311.38 196.44Q309.98 197.83 307.60 197.83M307.60 195.91Q309.02 195.91 309.82 195.12Q310.62 194.33 310.62 192.79L310.62 189.29Q310.62 187.75 309.82 186.96Q309.02 186.17 307.60 186.17Q306.21 186.17 305.39 186.96Q304.58 187.75 304.58 189.29L304.58 192.79Q304.58 194.33 305.39 195.12Q306.21 195.91 307.60 195.91" fill="white" fill-opacity="0.7"/>
<path d="M319.65 197.64L317.49 197.64L317.49 184.44L319.65 184.44L319.65 186.96L319.70 186.96Q319.86 185.69 320.78 184.94Q321.69 184.20 323.22 184.20Q325.29 184.20 326.40 185.44Q327.52 186.67 327.52 188.95L327.52 190.08L325.36 190.08L325.36 188.95Q325.36 186.07 322.55 186.07Q321.14 186.07 320.39 186.89Q319.65 187.70 319.65 189.24" fill="white" fill-opacity="0.7"/>
<path d="M351.33 197.83L350.27 197.83Q348.06 197.83 346.85 196.84Q345.64 195.84 345.64 194.02L347.80 194.02Q347.80 194.93 348.45 195.44Q349.10 195.96 350.27 195.96L351.33 195.96Q352.53 195.96 353.19 195.43Q353.85 194.90 353.85 193.94Q353.85 192.24 352.29 192.02L348.64 191.50Q347.30 191.30 346.55 190.38Q345.81 189.46 345.81 187.94Q345.81 186.22 347 185.23Q348.18 184.25 350.27 184.25L351.33 184.25Q353.25 184.25 354.46 185.20Q355.67 186.14 355.77 187.68L353.58 187.68Q353.54 186.98 352.92 186.53Q352.31 186.07 351.33 186.07L350.27 186.07Q349.17 186.07 348.54 186.58Q347.92 187.08 347.92 187.94Q347.92 189.34 349.19 189.53L352.60 190.01Q355.96 190.49 355.96 193.94Q355.96 195.79 354.75 196.81Q353.54 197.83 351.33 197.83" fill="white" fill-opacity="0.7"/>
<path d="M365.20 197.88Q362.87 197.88 361.44 196.48Q360.02 195.07 360.02 192.60L360.02 189.48Q360.02 187.01 361.44 185.60Q362.87 184.20 365.20 184.20Q366.76 184.20 367.92 184.82Q369.09 185.45 369.74 186.58Q370.38 187.70 370.38 189.24L370.38 191.59L362.13 191.59L362.13 192.84Q362.13 194.30 362.97 195.16Q363.81 196.01 365.20 196.01Q366.40 196.01 367.18 195.54Q367.96 195.07 368.13 194.28L370.29 194.28Q370.07 195.94 368.68 196.91Q367.29 197.88 365.20 197.88M362.13 189.24L362.13 189.91L368.27 189.91L368.27 189.24Q368.27 187.68 367.47 186.83Q366.66 185.98 365.20 185.98Q363.74 185.98 362.93 186.83Q362.13 187.68 362.13 189.24" fill="white" fill-opacity="0.7"/>
<path d="M379.79 197.88Q377.39 197.88 375.95 196.54Q374.51 195.19 374.51 192.84L374.51 189.24Q374.51 186.89 375.95 185.54Q377.39 184.20 379.79 184.20Q382.07 184.20 383.48 185.42Q384.88 186.65 384.95 188.76L382.79 188.76Q382.72 187.49 381.93 186.80Q381.14 186.12 379.79 186.12Q378.38 186.12 377.52 186.92Q376.67 187.73 376.67 189.22L376.67 192.84Q376.67 194.33 377.52 195.14Q378.38 195.96 379.79 195.96Q381.14 195.96 381.93 195.26Q382.72 194.57 382.79 193.32L384.95 193.32Q384.88 195.43 383.48 196.66Q382.07 197.88 379.79 197.88" fill="white" fill-opacity="0.7"/>
<path d="M394 197.83Q391.62 197.83 390.22 196.44Q388.82 195.05 388.82 192.55L388.82 189.53Q388.82 187.01 390.21 185.63Q391.60 184.25 394 184.25Q396.40 184.25 397.79 185.63Q399.18 187.01 399.18 189.53L399.18 192.55Q399.18 195.05 397.78 196.44Q396.38 197.83 394 197.83M394 195.91Q395.42 195.91 396.22 195.12Q397.02 194.33 397.02 192.79L397.02 189.29Q397.02 187.75 396.22 186.96Q395.42 186.17 394 186.17Q392.61 186.17 391.79 186.96Q390.98 187.75 390.98 189.29L390.98 192.79Q390.98 194.33 391.79 195.12Q392.61 195.91 394 195.91" fill="white" fill-opacity="0.7"/>
<path d="M405.57 197.64L403.41 197.64L403.41 184.44L405.57 184.44L405.57 186.96L405.59 186.96Q405.76 185.64 406.67 184.92Q407.58 184.20 409.10 184.20Q411.09 184.20 412.26 185.42Q413.44 186.65 413.44 188.76L413.44 197.64L411.28 197.64L411.28 189.14Q411.28 187.63 410.52 186.83Q409.77 186.02 408.47 186.02Q407.13 186.02 406.35 186.86Q405.57 187.70 405.57 189.24" fill="white" fill-opacity="0.7"/>
<path d="M422.03 197.88Q420.06 197.88 418.88 196.56Q417.69 195.24 417.69 192.98L417.69 189.12Q417.69 186.84 418.86 185.52Q420.04 184.20 422.03 184.20Q423.52 184.20 424.49 184.94Q425.46 185.69 425.66 186.96L425.68 186.96L425.63 183.96L425.63 180.12L427.79 180.12L427.79 197.64L425.63 197.64L425.63 195.12L425.61 195.12Q425.44 196.42 424.48 197.15Q423.52 197.88 422.03 197.88M422.75 196.01Q424.10 196.01 424.86 195.17Q425.63 194.33 425.63 192.84L425.63 189.24Q425.63 187.75 424.86 186.91Q424.10 186.07 422.75 186.07Q421.38 186.07 420.62 186.78Q419.85 187.49 419.85 189.12L419.85 192.96Q419.85 194.57 420.62 195.29Q421.38 196.01 422.75 196.01" fill="white" fill-opacity="0.7"/>
<path d="M436.05 197.88Q434.01 197.88 432.81 196.74Q431.61 195.60 431.61 193.75Q431.61 192.53 432.16 191.62Q432.71 190.70 433.70 190.19Q434.68 189.67 435.95 189.67L440.03 189.67L440.03 188.64Q440.03 186.07 437.22 186.07Q435.98 186.07 435.21 186.53Q434.44 186.98 434.39 187.80L432.23 187.80Q432.35 186.24 433.68 185.22Q435.02 184.20 437.22 184.20Q439.62 184.20 440.91 185.35Q442.19 186.50 442.19 188.57L442.19 197.64L440.06 197.64L440.06 195.24L440.01 195.24Q439.82 196.46 438.78 197.17Q437.75 197.88 436.05 197.88M436.58 196.06Q438.16 196.06 439.10 195.29Q440.03 194.52 440.03 193.20L440.03 191.35L436.19 191.35Q435.14 191.35 434.48 191.99Q433.82 192.62 433.82 193.68Q433.82 194.78 434.55 195.42Q435.28 196.06 436.58 196.06" fill="white" fill-opacity="0.7"/>
<path d="M449.25 197.64L447.09 197.64L447.09 184.44L449.25 184.44L449.25 186.96L449.30 186.96Q449.46 185.69 450.38 184.94Q451.29 184.20 452.82 184.20Q454.89 184.20 456 185.44Q457.12 186.67 457.12 188.95L457.12 190.08L454.96 190.08L454.96 188.95Q454.96 186.07 452.15 186.07Q450.74 186.07 449.99 186.89Q449.25 187.70 449.25 189.24" fill="white" fill-opacity="0.7"/>
<path d="M465.33 201.96L463.07 201.96L465.02 196.82L460.10 184.44L462.42 184.44L465.54 192.60Q465.74 193.08 465.90 193.61Q466.07 194.14 466.14 194.52Q466.22 194.14 466.38 193.61Q466.55 193.08 466.72 192.60L469.62 184.44L471.90 184.44" fill="white" fill-opacity="0.7"/>
<path d="M493.65 197.88Q491.61 197.88 490.41 196.74Q489.21 195.60 489.21 193.75Q489.21 192.53 489.76 191.62Q490.31 190.70 491.30 190.19Q492.28 189.67 493.55 189.67L497.63 189.67L497.63 188.64Q497.63 186.07 494.82 186.07Q493.58 186.07 492.81 186.53Q492.04 186.98 491.99 187.80L489.83 187.80Q489.95 186.24 491.28 185.22Q492.62 184.20 494.82 184.20Q497.22 184.20 498.51 185.35Q499.79 186.50 499.79 188.57L499.79 197.64L497.66 197.64L497.66 195.24L497.61 195.24Q497.42 196.46 496.38 197.17Q495.35 197.88 493.65 197.88M494.18 196.06Q495.76 196.06 496.70 195.29Q497.63 194.52 497.63 193.20L497.63 191.35L493.79 191.35Q492.74 191.35 492.08 191.99Q491.42 192.62 491.42 193.68Q491.42 194.78 492.15 195.42Q492.88 196.06 494.18 196.06" fill="white" fill-opacity="0.7"/>
<path d="M506.37 197.64L504.21 197.64L504.21 184.44L506.37 184.44L506.37 186.96L506.39 186.96Q506.56 185.64 507.47 184.92Q508.38 184.20 509.90 184.20Q511.89 184.20 513.06 185.42Q514.24 186.65 514.24 188.76L514.24 197.64L512.08 197.64L512.08 189.14Q512.08 187.63 511.32 186.83Q510.57 186.02 509.27 186.02Q507.93 186.02 507.15 186.86Q506.37 187.70 506.37 189.24" fill="white" fill-opacity="0.7"/>
<path d="M522.83 197.88Q520.86 197.88 519.68 196.56Q518.49 195.24 518.49 192.98L518.49 189.12Q518.49 186.84 519.66 185.52Q520.84 184.20 522.83 184.20Q524.32 184.20 525.29 184.94Q526.26 185.69 526.46 186.96L526.48 186.96L526.43 183.96L526.43 180.12L528.59 180.12L528.59 197.64L526.43 197.64L526.43 195.12L526.41 195.12Q526.24 196.42 525.28 197.15Q524.32 197.88 522.83 197.88M523.55 196.01Q524.90 196.01 525.66 195.17Q526.43 194.33 526.43 192.84L526.43 189.24Q526.43 187.75 525.66 186.91Q524.90 186.07 523.55 186.07Q522.18 186.07 521.42 186.78Q520.65 187.49 520.65 189.12L520.65 192.96Q520.65 194.57 521.42 195.29Q522.18 196.01 523.55 196.01" fill="white" fill-opacity="0.7"/>
<path d="M549.57 197.64L547.41 197.64L547.41 180.12L549.57 180.12L549.57 186.96L549.59 186.96Q549.76 185.64 550.67 184.92Q551.58 184.20 553.10 184.20Q555.09 184.20 556.26 185.42Q557.44 186.65 557.44 188.76L557.44 197.64L555.28 197.64L555.28 189.12Q555.28 187.63 554.52 186.83Q553.77 186.02 552.47 186.02Q551.13 186.02 550.35 186.86Q549.57 187.70 549.57 189.24" fill="white" fill-opacity="0.7"/>
<path d="M572.92 197.64L561.64 197.64L561.64 195.67L566.32 195.67L566.32 186.41L562.12 186.41L562.12 184.44L568.48 184.44L568.48 195.67L572.92 195.67L572.92 197.64M567.16 182.06Q566.37 182.06 565.91 181.66Q565.46 181.25 565.46 180.55Q565.46 179.83 565.91 179.41Q566.37 178.99 567.16 178.99Q567.95 178.99 568.41 179.41Q568.86 179.83 568.86 180.55Q568.86 181.25 568.41 181.66Q567.95 182.06 567.16 182.06" fill="white" fill-opacity="0.7"/>
<path d="M581.56 201.96L577.86 201.96L577.86 199.99L581.58 199.99Q582.71 199.99 583.36 199.36Q584.01 198.72 584.01 197.64L584.01 196.44L584.06 194.28L583.98 194.28Q583.79 195.46 582.86 196.09Q581.92 196.73 580.50 196.73Q578.46 196.73 577.29 195.43Q576.11 194.14 576.11 191.88L576.11 189.10Q576.11 186.84 577.29 185.52Q578.46 184.20 580.50 184.20Q581.92 184.20 582.86 184.87Q583.79 185.54 583.98 186.72L584.03 186.72L584.03 184.44L586.17 184.44L586.17 197.64Q586.17 199.63 584.93 200.80Q583.70 201.96 581.56 201.96M581.15 194.93Q582.50 194.93 583.26 194.09Q584.03 193.25 584.03 191.76L584.03 189.24Q584.03 187.75 583.26 186.91Q582.50 186.07 581.15 186.07Q579.78 186.07 579.03 186.86Q578.27 187.66 578.27 189L578.27 192Q578.27 193.34 579.03 194.14Q579.78 194.93 581.15 194.93" fill="white" fill-opacity="0.7"/>
<path d="M592.77 197.64L590.61 197.64L590.61 180.12L592.77 180.12L592.77 186.96L592.79 186.96Q592.96 185.64 593.87 184.92Q594.78 184.20 596.30 184.20Q598.29 184.20 599.46 185.42Q600.64 186.65 600.64 188.76L600.64 197.64L598.48 197.64L598.48 189.12Q598.48 187.63 597.72 186.83Q596.97 186.02 595.67 186.02Q594.33 186.02 593.55 186.86Q592.77 187.70 592.77 189.24" fill="white" fill-opacity="0.7"/>
<path d="M610 197.88Q607.67 197.88 606.24 196.48Q604.82 195.07 604.82 192.60L604.82 189.48Q604.82 187.01 606.24 185.60Q607.67 184.20 610 184.20Q611.56 184.20 612.72 184.82Q613.89 185.45 614.54 186.58Q615.18 187.70 615.18 189.24L615.18 191.59L606.93 191.59L606.93 192.84Q606.93 194.30 607.77 195.16Q608.61 196.01 610 196.01Q611.20 196.01 611.98 195.54Q612.76 195.07 612.93 194.28L615.09 194.28Q614.87 195.94 613.48 196.91Q612.09 197.88 610 197.88M606.93 189.24L606.93 189.91L613.07 189.91L613.07 189.24Q613.07 187.68 612.27 186.83Q611.46 185.98 610 185.98Q608.54 185.98 607.73 186.83Q606.93 187.68 606.93 189.24" fill="white" fill-opacity="0.7"/>
<path d="M622.05 197.64L619.89 197.64L619.89 184.44L622.05 184.44L622.05 186.96L622.10 186.96Q622.26 185.69 623.18 184.94Q624.09 184.20 625.62 184.20Q627.69 184.20 628.80 185.44Q629.92 186.67 629.92 188.95L629.92 190.08L627.76 190.08L627.76 188.95Q627.76 186.07 624.95 186.07Q623.54 186.07 622.79 186.89Q622.05 187.70 622.05 189.24" fill="white" fill-opacity="0.7"/>
<path d="M653.73 197.83L652.67 197.83Q650.46 197.83 649.25 196.84Q648.04 195.84 648.04 194.02L650.20 194.02Q650.20 194.93 650.85 195.44Q651.50 195.96 652.67 195.96L653.73 195.96Q654.93 195.96 655.59 195.43Q656.25 194.90 656.25 193.94Q656.25 192.24 654.69 192.02L651.04 191.50Q649.70 191.30 648.95 190.38Q648.21 189.46 648.21 187.94Q648.21 186.22 649.40 185.23Q650.58 184.25 652.67 184.25L653.73 184.25Q655.65 184.25 656.86 185.20Q658.07 186.14 658.17 187.68L655.98 187.68Q655.94 186.98 655.32 186.53Q654.71 186.07 653.73 186.07L652.67 186.07Q651.57 186.07 650.94 186.58Q650.32 187.08 650.32 187.94Q650.32 189.34 651.59 189.53L655 190.01Q658.36 190.49 658.36 193.94Q658.36 195.79 657.15 196.81Q655.94 197.83 653.73 197.83" fill="white" fill-opacity="0.7"/>
<path d="M667.60 197.88Q665.27 197.88 663.84 196.48Q662.42 195.07 662.42 192.60L662.42 189.48Q662.42 187.01 663.84 185.60Q665.27 184.20 667.60 184.20Q669.16 184.20 670.32 184.82Q671.49 185.45 672.14 186.58Q672.78 187.70 672.78 189.24L672.78 191.59L664.53 191.59L664.53 192.84Q664.53 194.30 665.37 195.16Q666.21 196.01 667.60 196.01Q668.80 196.01 669.58 195.54Q670.36 195.07 670.53 194.28L672.69 194.28Q672.47 195.94 671.08 196.91Q669.69 197.88 667.60 197.88M664.53 189.24L664.53 189.91L670.67 189.91L670.67 189.24Q670.67 187.68 669.87 186.83Q669.06 185.98 667.60 185.98Q666.14 185.98 665.33 186.83Q664.53 187.68 664.53 189.24" fill="white" fill-opacity="0.7"/>
<path d="M682.19 197.88Q679.79 197.88 678.35 196.54Q676.91 195.19 676.91 192.84L676.91 189.24Q676.91 186.89 678.35 185.54Q679.79 184.20 682.19 184.20Q684.47 184.20 685.88 185.42Q687.28 186.65 687.35 188.76L685.19 188.76Q685.12 187.49 684.33 186.80Q683.54 186.12 682.19 186.12Q680.78 186.12 679.92 186.92Q679.07 187.73 679.07 189.22L679.07 192.84Q679.07 194.33 679.92 195.14Q680.78 195.96 682.19 195.96Q683.54 195.96 684.33 195.26Q685.12 194.57 685.19 193.32L687.35 193.32Q687.28 195.43 685.88 196.66Q684.47 197.88 682.19 197.88" fill="white" fill-opacity="0.7"/>
<path d="M696.40 197.83Q694.02 197.83 692.62 196.44Q691.22 195.05 691.22 192.55L691.22 189.53Q691.22 187.01 692.61 185.63Q694 184.25 696.40 184.25Q698.80 184.25 700.19 185.63Q701.58 187.01 701.58 189.53L701.58 192.55Q701.58 195.05 700.18 196.44Q698.78 197.83 696.40 197.83M696.40 195.91Q697.82 195.91 698.62 195.12Q699.42 194.33 699.42 192.79L699.42 189.29Q699.42 187.75 698.62 186.96Q697.82 186.17 696.40 186.17Q695.01 186.17 694.19 186.96Q693.38 187.75 693.38 189.29L693.38 192.79Q693.38 194.33 694.19 195.12Q695.01 195.91 696.40 195.91" fill="white" fill-opacity="0.7"/>
<path d="M707.97 197.64L705.81 197.64L705.81 184.44L707.97 184.44L707.97 186.96L707.99 186.96Q708.16 185.64 709.07 184.92Q709.98 184.20 711.50 184.20Q713.49 184.20 714.66 185.42Q715.84 186.65 715.84 188.76L715.84 197.64L713.68 197.64L713.68 189.14Q713.68 187.63 712.92 186.83Q712.17 186.02 710.87 186.02Q709.53 186.02 708.75 186.86Q707.97 187.70 707.97 189.24" fill="white" fill-opacity="0.7"/>
<path d="M724.43 197.88Q722.46 197.88 721.28 196.56Q720.09 195.24 720.09 192.98L720.09 189.12Q720.09 186.84 721.26 185.52Q722.44 184.20 724.43 184.20Q725.92 184.20 726.89 184.94Q727.86 185.69 728.06 186.96L728.08 186.96L728.03 183.96L728.03 180.12L730.19 180.12L730.19 197.64L728.03 197.64L728.03 195.12L728.01 195.12Q727.84 196.42 726.88 197.15Q725.92 197.88 724.43 197.88M725.15 196.01Q726.50 196.01 727.26 195.17Q728.03 194.33 728.03 192.84L728.03 189.24Q728.03 187.75 727.26 186.91Q726.50 186.07 725.15 186.07Q723.78 186.07 723.02 186.78Q722.25 187.49 722.25 189.12L722.25 192.96Q722.25 194.57 723.02 195.29Q723.78 196.01 725.15 196.01" fill="white" fill-opacity="0.7"/>
<path d="M738.45 197.88Q736.41 197.88 735.21 196.74Q734.01 195.60 734.01 193.75Q734.01 192.53 734.56 191.62Q735.11 190.70 736.10 190.19Q737.08 189.67 738.35 189.67L742.43 189.67L742.43 188.64Q742.43 186.07 739.62 186.07Q738.38 186.07 737.61 186.53Q736.84 186.98 736.79 187.80L734.63 187.80Q734.75 186.24 736.08 185.22Q737.42 184.20 739.62 184.20Q742.02 184.20 743.31 185.35Q744.59 186.50 744.59 188.57L744.59 197.64L742.46 197.64L742.46 195.24L742.41 195.24Q742.22 196.46 741.18 197.17Q740.15 197.88 738.45 197.88M738.98 196.06Q740.56 196.06 741.50 195.29Q742.43 194.52 742.43 193.20L742.43 191.35L738.59 191.35Q737.54 191.35 736.88 191.99Q736.22 192.62 736.22 193.68Q736.22 194.78 736.95 195.42Q737.68 196.06 738.98 196.06" fill="white" fill-opacity="0.7"/>
<path d="M751.65 197.64L749.49 197.64L749.49 184.44L751.65 184.44L751.65 186.96L751.70 186.96Q751.86 185.69 752.78 184.94Q753.69 184.20 755.22 184.20Q757.29 184.20 758.40 185.44Q759.52 186.67 759.52 188.95L759.52 190.08L757.36 190.08L757.36 188.95Q757.36 186.07 754.55 186.07Q753.14 186.07 752.39 186.89Q751.65 187.70 751.65 189.24" fill="white" fill-opacity="0.7"/>
<path d="M767.73 201.96L765.47 201.96L767.42 196.82L762.50 184.44L764.82 184.44L767.94 192.60Q768.14 193.08 768.30 193.61Q768.47 194.14 768.54 194.52Q768.62 194.14 768.78 193.61Q768.95 193.08 769.12 192.60L772.02 184.44L774.30 184.44" fill="white" fill-opacity="0.7"/>
<path d="M797.20 197.88Q794.87 197.88 793.44 196.48Q792.02 195.07 792.02 192.60L792.02 189.48Q792.02 187.01 793.44 185.60Q794.87 184.20 797.20 184.20Q798.76 184.20 799.92 184.82Q801.09 185.45 801.74 186.58Q802.38 187.70 802.38 189.24L802.38 191.59L794.13 191.59L794.13 192.84Q794.13 194.30 794.97 195.16Q795.81 196.01 797.20 196.01Q798.40 196.01 799.18 195.54Q799.96 195.07 800.13 194.28L802.29 194.28Q802.07 195.94 800.68 196.91Q799.29 197.88 797.20 197.88M794.13 189.24L794.13 189.91L800.27 189.91L800.27 189.24Q800.27 187.68 799.47 186.83Q798.66 185.98 797.20 185.98Q795.74 185.98 794.93 186.83Q794.13 187.68 794.13 189.24" fill="white" fill-opacity="0.7"/>
<path d="M810.83 197.88Q808.86 197.88 807.68 196.56Q806.49 195.24 806.49 192.98L806.49 189.12Q806.49 186.84 807.66 185.52Q808.84 184.20 810.83 184.20Q812.32 184.20 813.29 184.94Q814.26 185.69 814.46 186.96L814.48 186.96L814.43 183.96L814.43 180.12L816.59 180.12L816.59 197.64L814.43 197.64L814.43 195.12L814.41 195.12Q814.24 196.42 813.28 197.15Q812.32 197.88 810.83 197.88M811.55 196.01Q812.90 196.01 813.66 195.17Q814.43 194.33 814.43 192.84L814.43 189.24Q814.43 187.75 813.66 186.91Q812.90 186.07 811.55 186.07Q810.18 186.07 809.42 186.78Q808.65 187.49 808.65 189.12L808.65 192.96Q808.65 194.57 809.42 195.29Q810.18 196.01 811.55 196.01" fill="white" fill-opacity="0.7"/>
<path d="M825.98 197.88Q823.70 197.88 822.33 196.52Q820.96 195.17 820.96 192.84L820.96 184.44L823.12 184.44L823.12 192.84Q823.12 194.28 823.89 195.13Q824.66 195.98 825.98 195.98Q827.32 195.98 828.10 195.13Q828.88 194.28 828.88 192.84L828.88 184.44L831.04 184.44L831.04 192.84Q831.04 195.17 829.65 196.52Q828.26 197.88 825.98 197.88" fill="white" fill-opacity="0.7"/>
<path d="M840.59 197.88Q838.19 197.88 836.75 196.54Q835.31 195.19 835.31 192.84L835.31 189.24Q835.31 186.89 836.75 185.54Q838.19 184.20 840.59 184.20Q842.87 184.20 844.28 185.42Q845.68 186.65 845.75 188.76L843.59 188.76Q843.52 187.49 842.73 186.80Q841.94 186.12 840.59 186.12Q839.18 186.12 838.32 186.92Q837.47 187.73 837.47 189.22L837.47 192.84Q837.47 194.33 838.32 195.14Q839.18 195.96 840.59 195.96Q841.94 195.96 842.73 195.26Q843.52 194.57 843.59 193.32L845.75 193.32Q845.68 195.43 844.28 196.66Q842.87 197.88 840.59 197.88" fill="white" fill-opacity="0.7"/>
<path d="M853.65 197.88Q851.61 197.88 850.41 196.74Q849.21 195.60 849.21 193.75Q849.21 192.53 849.76 191.62Q850.31 190.70 851.30 190.19Q852.28 189.67 853.55 189.67L857.63 189.67L857.63 188.64Q857.63 186.07 854.82 186.07Q853.58 186.07 852.81 186.53Q852.04 186.98 851.99 187.80L849.83 187.80Q849.95 186.24 851.28 185.22Q852.62 184.20 854.82 184.20Q857.22 184.20 858.51 185.35Q859.79 186.50 859.79 188.57L859.79 197.64L857.66 197.64L857.66 195.24L857.61 195.24Q857.42 196.46 856.38 197.17Q855.35 197.88 853.65 197.88M854.18 196.06Q855.76 196.06 856.70 195.29Q857.63 194.52 857.63 193.20L857.63 191.35L853.79 191.35Q852.74 191.35 852.08 191.99Q851.42 192.62 851.42 193.68Q851.42 194.78 852.15 195.42Q852.88 196.06 854.18 196.06" fill="white" fill-opacity="0.7"/>
<path d="M874.36 197.64L870.52 197.64Q868.89 197.64 867.90 196.69Q866.92 195.74 866.92 194.16L866.92 186.41L863.13 186.41L863.13 184.44L866.92 184.44L866.92 180.72L869.08 180.72L869.08 184.44L874.48 184.44L874.48 186.41L869.08 186.41L869.08 194.16Q869.08 194.83 869.48 195.25Q869.87 195.67 870.52 195.67L874.36 195.67" fill="white" fill-opacity="0.7"/>
<path d="M889.72 197.64L878.44 197.64L878.44 195.67L883.12 195.67L883.12 186.41L878.92 186.41L878.92 184.44L885.28 184.44L885.28 195.67L889.72 195.67L889.72 197.64M883.96 182.06Q883.17 182.06 882.71 181.66Q882.26 181.25 882.26 180.55Q882.26 179.83 882.71 179.41Q883.17 178.99 883.96 178.99Q884.75 178.99 885.21 179.41Q885.66 179.83 885.66 180.55Q885.66 181.25 885.21 181.66Q884.75 182.06 883.96 182.06" fill="white" fill-opacity="0.7"/>
<path d="M898 197.83Q895.62 197.83 894.22 196.44Q892.82 195.05 892.82 192.55L892.82 189.53Q892.82 187.01 894.21 185.63Q895.60 184.25 898 184.25Q900.40 184.25 901.79 185.63Q903.18 187.01 903.18 189.53L903.18 192.55Q903.18 195.05 901.78 196.44Q900.38 197.83 898 197.83M898 195.91Q899.42 195.91 900.22 195.12Q901.02 194.33 901.02 192.79L901.02 189.29Q901.02 187.75 900.22 186.96Q899.42 186.17 898 186.17Q896.61 186.17 895.79 186.96Q894.98 187.75 894.98 189.29L894.98 192.79Q894.98 194.33 895.79 195.12Q896.61 195.91 898 195.91" fill="white" fill-opacity="0.7"/>
<path d="M909.57 197.64L907.41 197.64L907.41 184.44L909.57 184.44L909.57 186.96L909.59 186.96Q909.76 185.64 910.67 184.92Q911.58 184.20 913.10 184.20Q915.09 184.20 916.26 185.42Q917.44 186.65 917.44 188.76L917.44 197.64L915.28 197.64L915.28 189.14Q915.28 187.63 914.52 186.83Q913.77 186.02 912.47 186.02Q911.13 186.02 910.35 186.86Q909.57 187.70 909.57 189.24" fill="white" fill-opacity="0.7"/>
<path d="M926.80 197.88Q925.91 197.88 925.37 197.35Q924.83 196.82 924.83 195.98Q924.83 195.10 925.37 194.54Q925.91 193.99 926.80 193.99Q927.69 193.99 928.23 194.54Q928.77 195.10 928.77 195.98Q928.77 196.82 928.23 197.35Q927.69 197.88 926.80 197.88" fill="white" fill-opacity="0.7"/>
<path d="M76.11 136.06L66.42 136.06L84.56 65.98L97.14 65.98L115.18 136.06L105.49 136.06L101.07 117.82L80.53 117.82L76.11 136.06M87.54 88.92L82.45 109.95L99.15 109.95L94.16 89.02Q92.72 83.26 91.86 79.23Q90.99 75.20 90.80 73.76Q90.61 75.20 89.74 79.23Q88.88 83.26 87.54 88.92M137.55 136.06L128.05 136.06L128.05 65.98L150.80 65.98Q157.52 65.98 162.42 68.57Q167.31 71.16 170 75.82Q172.69 80.48 172.69 86.91Q172.69 93.24 170 97.90Q167.31 102.56 162.37 105.15Q157.42 107.74 150.80 107.74L137.55 107.74L137.55 136.06M137.55 74.43L137.55 99.29L150.80 99.29Q156.37 99.29 159.63 95.88Q162.90 92.48 162.90 86.91Q162.90 81.24 159.63 77.84Q156.37 74.43 150.80 74.43L137.55 74.43M225.10 136.06L186.90 136.06L186.90 127.42L201.20 127.42L201.20 74.62L186.90 74.62L186.90 65.98L225.10 65.98L225.10 74.62L210.80 74.62L210.80 127.42L225.10 127.42L225.10 136.06M263.98 137.02Q253.62 137.02 247.47 131.60Q241.33 126.17 241.33 116.67L250.83 116.67Q250.83 122.24 254.38 125.40Q257.94 128.57 263.98 128.57Q269.74 128.57 273.15 125.36Q276.56 122.14 276.56 116.76Q276.56 112.73 274.35 109.71Q272.14 106.68 268.11 105.63L257.74 102.84Q250.93 100.92 246.94 95.88Q242.96 90.84 242.96 83.93Q242.96 78.27 245.50 74Q248.05 69.72 252.66 67.37Q257.26 65.02 263.31 65.02Q269.46 65.02 274.11 67.37Q278.77 69.72 281.36 73.95Q283.95 78.17 283.95 83.74L274.54 83.74Q274.54 79.13 271.42 76.25Q268.30 73.37 263.31 73.37Q258.32 73.37 255.30 76.25Q252.27 79.13 252.27 83.74Q252.27 87.48 254.29 90.03Q256.30 92.57 259.95 93.63L270.61 96.51Q277.81 98.43 281.84 103.85Q285.87 109.28 285.87 116.76Q285.87 122.91 283.18 127.47Q280.50 132.03 275.55 134.52Q270.61 137.02 263.98 137.02M342.51 136.06L301.71 136.06L301.71 65.98L342.51 65.98L342.51 74.52L311.12 74.52L311.12 95.36L339.15 95.36L339.15 103.61L311.12 103.61L311.12 127.52L342.51 127.52L342.51 136.06M383.60 136.06L374.10 136.06L374.10 74.62L355.09 74.62L355.09 65.98L402.51 65.98L402.51 74.62L383.60 74.62L383.60 136.06M436.40 137.02Q426.51 137.02 421.18 131.55Q415.86 126.08 415.86 116.67L415.86 65.98L425.36 65.98L425.36 116.67Q425.36 122.24 428.10 125.40Q430.83 128.57 436.40 128.57Q441.87 128.57 444.70 125.40Q447.54 122.24 447.54 116.67L447.54 65.98L457.04 65.98L457.04 116.67Q457.04 126.17 451.71 131.60Q446.38 137.02 436.40 137.02M551.98 137.02Q542.29 137.02 536.58 131.60Q530.86 126.17 530.86 116.67L530.86 85.28Q530.86 75.87 536.58 70.44Q542.29 65.02 551.98 65.02Q561.58 65.02 567.30 70.49Q573.01 75.96 573.01 85.28L563.50 85.28Q563.50 79.61 560.43 76.54Q557.36 73.47 551.98 73.47Q546.51 73.47 543.44 76.54Q540.37 79.61 540.37 85.28L540.37 116.67Q540.37 122.43 543.44 125.50Q546.51 128.57 551.98 128.57Q557.36 128.57 560.43 125.50Q563.50 122.43 563.50 116.67L563.50 107.55L549.87 107.55L549.87 99.10L573.01 99.10L573.01 116.67Q573.01 126.08 567.30 131.55Q561.58 137.02 551.98 137.02M609.20 137.02Q599.60 137.02 594.03 131.45Q588.46 125.88 588.46 115.71L588.46 86.24Q588.46 76.16 594.03 70.59Q599.60 65.02 609.20 65.02Q618.80 65.02 624.37 70.54Q629.94 76.06 629.94 86.24L629.94 115.71Q629.94 125.88 624.37 131.45Q618.80 137.02 609.20 137.02M609.20 128.57Q614.58 128.57 617.50 125.50Q620.43 122.43 620.43 116.67L620.43 85.28Q620.43 79.61 617.55 76.54Q614.67 73.47 609.20 73.47Q603.73 73.47 600.85 76.54Q597.97 79.61 597.97 85.28L597.97 116.67Q597.97 122.43 600.90 125.50Q603.82 128.57 609.20 128.57M673.14 136.06L660.37 136.06L642.42 65.98L652.21 65.98L663.82 113.21Q664.98 117.72 665.79 121.90Q666.61 126.08 666.99 128.28Q667.28 126.08 668.19 121.85Q669.10 117.63 670.16 113.12L681.39 65.98L691.18 65.98L673.14 136.06M782.38 137.02Q772.69 137.02 766.98 131.60Q761.26 126.17 761.26 116.67L761.26 85.28Q761.26 75.87 766.98 70.44Q772.69 65.02 782.38 65.02Q791.98 65.02 797.70 70.49Q803.41 75.96 803.41 85.28L793.90 85.28Q793.90 79.61 790.83 76.54Q787.76 73.47 782.38 73.47Q776.91 73.47 773.84 76.54Q770.77 79.61 770.77 85.28L770.77 116.67Q770.77 122.43 773.84 125.50Q776.91 128.57 782.38 128.57Q787.76 128.57 790.83 125.50Q793.90 122.43 793.90 116.67L793.90 107.55L780.27 107.55L780.27 99.10L803.41 99.10L803.41 116.67Q803.41 126.08 797.70 131.55Q791.98 137.02 782.38 137.02M840.94 136.06L819.34 136.06L819.34 65.98L839.60 65.98Q849.30 65.98 854.91 70.83Q860.53 75.68 860.53 84.12Q860.53 89.60 857.12 93.87Q853.71 98.14 848.34 99.10L848.34 99.39Q852.37 99.87 855.49 102.27Q858.61 104.67 860.38 108.36Q862.16 112.06 862.16 116.48Q862.16 125.50 856.45 130.78Q850.74 136.06 840.94 136.06M828.66 74.33L828.66 95.55L839.50 95.55Q844.88 95.55 847.95 92.72Q851.02 89.88 851.02 84.99Q851.02 80 847.95 77.16Q844.88 74.33 839.60 74.33L828.66 74.33M828.66 103.61L828.66 127.71L840.08 127.71Q845.94 127.71 849.30 124.59Q852.66 121.47 852.66 116.09Q852.66 110.52 849.30 107.07Q845.94 103.61 840.08 103.61L828.66 103.61M897.58 137.02Q887.22 137.02 881.07 131.60Q874.93 126.17 874.93 116.67L884.43 116.67Q884.43 122.24 887.98 125.40Q891.54 128.57 897.58 128.57Q903.34 128.57 906.75 125.36Q910.16 122.14 910.16 116.76Q910.16 112.73 907.95 109.71Q905.74 106.68 901.71 105.63L891.34 102.84Q884.53 100.92 880.54 95.88Q876.56 90.84 876.56 83.93Q876.56 78.27 879.10 74Q881.65 69.72 886.26 67.37Q890.86 65.02 896.91 65.02Q903.06 65.02 907.71 67.37Q912.37 69.72 914.96 73.95Q917.55 78.17 917.55 83.74L908.14 83.74Q908.14 79.13 905.02 76.25Q901.90 73.37 896.91 73.37Q891.92 73.37 888.90 76.25Q885.87 79.13 885.87 83.74Q885.87 87.48 887.89 90.03Q889.90 92.57 893.55 93.63L904.21 96.51Q911.41 98.43 915.44 103.85Q919.47 109.28 919.47 116.76Q919.47 122.91 916.78 127.47Q914.10 132.03 909.15 134.52Q904.21 137.02 897.58 137.02M944.05 136.06L934.54 136.06L934.54 65.98L944.05 65.98L944.05 95.55L965.55 95.55L965.55 65.98L975.06 65.98L975.06 136.06L965.55 136.06L965.55 104.19L944.05 104.19L944.05 136.06M1012.78 137.02Q1002.42 137.02 996.27 131.60Q990.13 126.17 990.13 116.67L999.63 116.67Q999.63 122.24 1003.18 125.40Q1006.74 128.57 1012.78 128.57Q1018.54 128.57 1021.95 125.36Q1025.36 122.14 1025.36 116.76Q1025.36 112.73 1023.15 109.71Q1020.94 106.68 1016.91 105.63L1006.54 102.84Q999.73 100.92 995.74 95.88Q991.76 90.84 991.76 83.93Q991.76 78.27 994.30 74Q996.85 69.72 1001.46 67.37Q1006.06 65.02 1012.11 65.02Q1018.26 65.02 1022.91 67.37Q1027.57 69.72 1030.16 73.95Q1032.75 78.17 1032.75 83.74L1023.34 83.74Q1023.34 79.13 1020.22 76.25Q1017.10 73.37 1012.11 73.37Q1007.12 73.37 1004.10 76.25Q1001.07 79.13 1001.07 83.74Q1001.07 87.48 1003.09 90.03Q1005.10 92.57 1008.75 93.63L1019.41 96.51Q1026.61 98.43 1030.64 103.85Q1034.67 109.28 1034.67 116.76Q1034.67 122.91 1031.98 127.47Q1029.30 132.03 1024.35 134.52Q1019.41 137.02 1012.78 137.02M1091.31 136.06L1050.51 136.06L1050.51 65.98L1091.31 65.98L1091.31 74.52L1059.92 74.52L1059.92 95.36L1087.95 95.36L1087.95 103.61L1059.92 103.61L1059.92 127.52L1091.31 127.52" fill="url(#paint2_linear_0_1)"/>
<g id="Group 1">
<rect id="Rectangle 1" x="26" y="168" width="12" height="184" rx="5" fill="url(#paint3_linear_0_1)" fill-opacity="0.9"/>
</g>
<g id="Group 1_2">
<rect id="Rectangle 2" x="26" y="38" width="12" height="119" rx="5" fill="url(#paint4_linear_0_1)" fill-opacity="0.9"/>
</g>
<ellipse id="Ellipse 1" cx="148.5" cy="573" rx="215.5" ry="214" fill="url(#paint5_linear_0_1)" fill-opacity="0.4"/>
<rect id="Rectangle 3" x="1229" y="48" width="300" height="300" rx="25" fill="#FFFBFB" fill-opacity="0.9"/>
<g id="placeholder-logo"><g transform="translate(1229,48) translate(0.0,60.0) scale(1.2000)"><g fill="#666666">
  <path d="m88.05,27.65c-3.15,4 -3.2,51.2 -0.05,54.35c2.75,2.75 71.7,3.15 74.45,0.45c2.85,-2.9 2.3,-53.85 -0.65,-55.9c-1.95,-1.35 -7.15,-1.55 -36.95,-1.55l-34.7,0l-2.1,2.65zm69.45,3.35c0.65,0 1,8.6 1,23.75l0,23.75l-33,0l-33,0l-0.25,-23c-0.15,-12.6 -0.1,-23.45 0.15,-24.1c0.35,-0.85 8.9,-1.05 32.25,-0.75c17.55,0.2 32.3,0.35 32.85,0.35z"/>
  <path d="m99.15,37.3c-6.85,7.35 4.25,17.35 11.4,10.25c1.35,-1.35 2.45,-3.65 2.45,-5.05c0,-6.45 -9.35,-9.95 -13.85,-5.2z"/>
  <path d="m135,42.5c-0.7,0.85 -5.25,5.15 -10.1,9.6l-8.85,8.1l-3.2,-3.2l-3.15,-3.15l-6.35,6.3c-5.55,5.5 -6.35,6.75 -6.35,10.05l0,3.8l28.5,0l28.5,0l0,-8.6l0,-8.55l-8.15,-7.7c-9.35,-8.85 -9.15,-8.7 -10.85,-6.65zm7.25,15.2c0.95,0.9 1.75,2.9 1.75,4.45c6.35,-5.05 4.75,-7.15 4.9,-11.55c0.95,0 0,0 0,0l-6.65,7.1z"/>
  <path d="m53.65,110.75c0.1,4.8 0.45,8.65 0.75,8.5c0.35,-0.15 1.3,-0.25 2.1,-0.25c1.1,0 1.5,-1.2 1.5,-4.75l0,-4.75l3.25,5c4.9,7.5 6.2,6.75 6.55,-3.75c0.25,-8.15 0.15,-8.75 -1.7,-8.75c-1.65,0 -2.05,0.8 -2.3,4.75l-0.3,4.75l-2.8,-4.75c-4.85,-8.25 -7.25,-6.9 -7.05,4z"/>
  <path d="m91,108.9c0,9.65 0.3,10.1 6.1,10.1c5.8,0 7.15,-2.65 1.65,-3.2l-3.25,-0.3l-0.3,-6.75c-0.25,-5.95 -0.55,-6.75 -2.25,-6.75c-1.75,0 -1.95,0.7 -1.95,6.9z"/>
  <path d="m151,102.45c0,0.25 1,2.15 2.25,4.2c1.2,2.1 2.45,5.8 2.75,8.25c0.65,5.9 4,6.95 4,1.25c0.05,-2.1 1.25,-5.85 2.95,-8.9l2.9,-5.25l-2.5,0c-1.8,0 -2.8,0.85 -3.75,3.1l-1.3,3.05l-1.25,-3.05c-1.1,-2.6 -6.05,-4.8 -6.05,-2.65z"/>
  <path d="m191,107.45c0,9.05 3.4,8.85 4.25,-0.2c0.45,-5 0.35,-5.25 -1.9,-5.25c-2.2,0 -2.35,0.4 -2.35,5.45z"/>
  <path d="m180.8,104.75c-1.3,5.35 0.65,13.6 3.45,14.35c2.3,0.6 2.75,0.4 2.75,-1.2c0,-1.05 -0.45,-1.9 -1,-1.9c-0.55,0 -1,-1.6 -1,-3.5c0,-1.95 0.45,-3.5 1,-3.5c0.55,0 1,-0.7 1,-1.5c0,-0.85 -0.45,-1.5 -1,-1.5c-0.55,0 -1,-0.7 -1,-1.5c0,-2.1 -3.65,-1.9 -4.2,0.25z"/>
  <path d="m71.55,106.55c-2.2,2.25 -2.05,9.7 0.3,11.8c4.5,4.1 10.15,0.75 10.15,-6.1c0,-4.85 -2,-7.25 -6,-7.25c-1.55,0 -3.55,0.7 -4.45,1.55zm6.25,5.8c0.25,3.05 0,3.65 -1.6,3.65c-2.3,0 -3.25,-2.65 -2.05,-5.85c1.25,-3.35 3.3,-2.1 3.65,2.2z"/>
  <path d="m105.75,106.1c-2.5,1.45 -2.45,9.95 0.1,12.25c4.3,3.9 10.15,0.35 10.15,-6.2c0,-6 -5.15,-9.05 -10.25,-6.05zm6.05,6.25c0.25,3.05 0,3.65 -1.6,3.65c-2.3,0 -3.25,-2.65 -2.05,-5.85c1.25,-3.35 3.3,-2.1 3.65,2.2z"/>
  <path d="m119.2,106.2c-3.8,3.8 -0.4,12.55 4.4,11.35c1.9,-0.45 2.45,-0.3 2.15,0.65c-0.25,0.7 -1.55,1.2 -2.85,1.1c-4.05,-0.3 -5.35,0.45 -3.85,2.25c0.85,1.05 2.6,1.45 5.35,1.25l4.1,-0.3l0.3,-8.75l0.3,-8.75l-4.35,0c-2.4,0 -4.9,0.55 -5.55,1.2zm6.6,4.45c0.4,2.85 -2.15,4.85 -3.75,2.95c-0.9,-1.1 -0.9,-2 -0.05,-3.6c1.35,-2.5 3.4,-2.15 3.8,0.65z"/>
  <path d="m133.55,106.55c-2.2,2.25 -2.05,9.7 0.3,11.8c4.5,4.1 10.15,0.75 10.15,-6.1c0,-4.85 -2,-7.25 -6,-7.25c-1.55,0 -3.55,0.7 -4.45,1.55zm6.25,5.8c0.25,3.05 0,3.65 -1.6,3.65c-2.3,0 -3.25,-2.65 -2.05,-5.85c1.25,-3.35 3.3,-2.1 3.65,2.2z"/>
  <path d="m167.65,106.85c-3.9,4.3 -0.75,13.15 4.7,13.15c2.4,0 5.65,-2.75 5.65,-4.85c0,-1.4 -2.65,-1.55 -3.5,-0.15c-0.95,1.55 -4.5,1.15 -4.5,-0.5c0,-1.1 1.1,-1.5 4,-1.5c3.15,0 4,-0.35 4,-1.8c0,-5.3 -6.85,-8.25 -10.35,-4.35z"/>
  <path d="m191,117.5c0,2.15 0.4,2.6 2.25,2.3c1.5,-0.2 2.25,-1 2.25,-2.3c0,-1.3 -0.75,-2.1 -2.25,-2.3c-1.85,-0.3 -2.25,0.15 -2.25,2.3z"/>
 </g></g></g>
</g>
<defs>
<linearGradient id="paint0_linear_0_1" x1="0" y1="198" x2="1584" y2="198" gradientUnits="userSpaceOnUse">
<stop stop-color="#3D052C"/>
<stop offset="1"/>
</linearGradient>
<linearGradient id="paint1_linear_0_1" x1="323" y1="-224" x2="323" y2="352" gradientUnits="userSpaceOnUse">
<stop stop-color="#28F6F2" stop-opacity="0.4"/>
<stop offset="1" stop-color="#17908E" stop-opacity="0.7"/>
</linearGradient>
<linearGradient id="paint2_linear_0_1" x1="148.5" y1="38" x2="148.5" y2="140" gradientUnits="userSpaceOnUse">
<stop stop-color="white"/>
<stop offset="1" stop-color="#999999"/>
</linearGradient>
<linearGradient id="paint3_linear_0_1" x1="38" y1="260" x2="26" y2="260" gradientUnits="userSpaceOnUse">
<stop stop-color="#D9D9D9"/>
<stop offset="1" stop-color="#737373"/>
</linearGradient>
<linearGradient id="paint4_linear_0_1" x1="38" y1="97.5" x2="26" y2="97.5" gradientUnits="userSpaceOnUse">
<stop stop-color="#D9D9D9"/>
<stop offset="1" stop-color="#737373"/>
</linearGradient>
<linearGradient id="paint5_linear_0_1" x1="27.5" y1="434.5" x2="148.5" y2="787" gradientUnits="userSpaceOnUse">
<stop stop-color="#2E21BC"/>
<stop offset="1" stop-color="#150F56"/>
</linearGradient>
<clipPath id="clip0_0_1">
<rect width="1584" height="396" fill="white"/>
</clipPath>
</defs>
</svg>
